<?xml version="1.0" encoding="UTF-8" standalone="no"?>
<svg width="75px" height="65px" viewBox="0 0 75 65" version="1.1" xmlns="http://www.w3.org/2000/svg" xmlns:xlink="http://www.w3.org/1999/xlink">
    <!-- Generator: Sketch 44.1 (41455) - http://www.bohemiancoding.com/sketch -->
    <title>_x33__13_</title>
    <desc>Created with Sketch.</desc>
    <defs></defs>
    <g id="Page-1" stroke="none" stroke-width="1" fill="none" fill-rule="evenodd">
        <g id="Desktop-HD" transform="translate(-804.000000, -1293.000000)" fill="#596682">
            <g id="our-services" transform="translate(251.000000, 1108.000000)">
                <g id="movie-symbol-of-video-camera" transform="translate(553.000000, 185.000000)">
                    <g id="Capa_1">
                        <g id="_x33__13_">
                            <path d="M70.3125,27.8614739 L56.25,37.1385261 C56.25,34.3229104 54.95625,31.8320522 52.9546569,30.1296828 C57.7194853,27.2886007 60.9375,22.169972 60.9375,16.2651586 C60.9375,7.29879664 53.5921569,0.0303171642 44.53125,0.0303171642 C35.4703431,0.0303171642 28.125,7.29891791 28.125,16.2651586 C28.125,20.8132183 30.0257353,24.9136754 33.0726716,27.8614739 L24.4757353,27.8614739 C26.7210784,25.3960821 28.125,22.1653638 28.125,18.5844216 C28.125,10.8984142 21.8296569,4.66884328 14.0625,4.66884328 C6.29534314,4.66884328 0,10.8984142 0,18.5844216 C0,22.7776493 1.91482843,26.4930784 4.87965686,29.0443284 C1.98517157,30.6237313 0,33.6364086 0,37.1385261 L0,55.6926306 C0,60.8158675 4.19767157,64.9696828 9.375,64.9696828 L46.875,64.9696828 C52.0523284,64.9696828 56.25,60.8158675 56.25,55.6926306 L70.3125,64.9696828 C72.9023284,64.9696828 75,62.8939272 75,60.3311567 L75,32.5 C75,29.9372295 72.9023284,27.8614739 70.3125,27.8614739 L70.3125,27.8614739 Z M14.0625,27.8614739 C8.88517157,27.8614739 4.6875,23.7076586 4.6875,18.5844216 C4.6875,13.4611847 8.88517157,9.3073694 14.0625,9.3073694 C19.2398284,9.3073694 23.4375,13.4611847 23.4375,18.5844216 C23.4375,23.7076586 19.2398284,27.8614739 14.0625,27.8614739 L14.0625,27.8614739 Z M44.53125,27.8869403 C38.04375,27.8869403 32.7867647,22.6824534 32.7867647,16.2651586 C32.7867647,9.84543843 38.046201,4.64337687 44.53125,4.64337687 C51.016299,4.64337687 56.2757353,9.84543843 56.2757353,16.2651586 C56.2757353,22.6848787 51.0186275,27.8869403 44.53125,27.8869403 L44.53125,27.8869403 Z" id="Shape"></path>
                        </g>
                    </g>
                </g>
            </g>
        </g>
    </g>
</svg>