<?xml version="1.0" encoding="UTF-8" standalone="no"?>
<svg width="76px" height="63px" viewBox="0 0 76 63" version="1.1" xmlns="http://www.w3.org/2000/svg" xmlns:xlink="http://www.w3.org/1999/xlink">
    <!-- Generator: Sketch 44.1 (41455) - http://www.bohemiancoding.com/sketch -->
    <title>Group</title>
    <desc>Created with Sketch.</desc>
    <defs></defs>
    <g id="Page-1" stroke="none" stroke-width="1" fill="none" fill-rule="evenodd">
        <g id="Desktop-HD" transform="translate(-563.000000, -1295.000000)" fill="#596682">
            <g id="our-services" transform="translate(251.000000, 1108.000000)">
                <g id="photo-camera" transform="translate(312.000000, 187.000000)">
                    <g id="Capa_1">
                        <g id="Group">
                            <path d="M38,19.53 C29.6184667,19.53 22.8,26.31258 22.8,34.65 C22.8,42.98742 29.6184667,49.77 38,49.77 C46.3815333,49.77 53.2,42.98742 53.2,34.65 C53.2,26.31258 46.3815333,19.53 38,19.53 L38,19.53 Z" id="Shape"></path>
                            <path d="M69.9212667,13.23 L59.1242,13.23 L54.0575333,0.63 L21.9424667,0.63 L16.8758,13.23 L15.2,13.23 L15.2,6.93 L7.6,6.93 L7.6,13.23 L6.07873333,13.23 C2.72586667,13.23 0,15.94152 0,19.27674 L0,56.28042 C0,59.63832 2.74613333,62.37 6.1218,62.37 L69.8782,62.37 C73.2538667,62.37 76,59.63832 76,56.28042 L76,19.27674 C76,15.94152 73.2741333,13.23 69.9212667,13.23 L69.9212667,13.23 Z M12.6666667,13.23 L10.1333333,13.23 L10.1333333,9.45 L12.6666667,9.45 L12.6666667,13.23 L12.6666667,13.23 Z M38,57.33 C25.4283333,57.33 15.2,47.1555 15.2,34.65 C15.2,22.1445 25.4283333,11.97 38,11.97 C50.5716667,11.97 60.8,22.1445 60.8,34.65 C60.8,47.1555 50.5716667,57.33 38,57.33 L38,57.33 Z M65.8666667,28.35 C63.0724,28.35 60.8,26.08956 60.8,23.31 C60.8,20.53044 63.0724,18.27 65.8666667,18.27 C68.6609333,18.27 70.9333333,20.53044 70.9333333,23.31 C70.9333333,26.08956 68.6609333,28.35 65.8666667,28.35 L65.8666667,28.35 Z" id="Shape"></path>
                        </g>
                    </g>
                </g>
            </g>
        </g>
    </g>
</svg>