<?xml version="1.0" encoding="UTF-8" standalone="no"?>
<svg width="76px" height="75px" viewBox="0 0 76 75" version="1.1" xmlns="http://www.w3.org/2000/svg" xmlns:xlink="http://www.w3.org/1999/xlink">
    <!-- Generator: Sketch 44.1 (41455) - http://www.bohemiancoding.com/sketch -->
    <title>Shape</title>
    <desc>Created with Sketch.</desc>
    <defs></defs>
    <g id="Page-1" stroke="none" stroke-width="1" fill="none" fill-rule="evenodd">
        <g id="Desktop-HD" transform="translate(-317.000000, -1282.000000)" fill-rule="nonzero" fill="#596682">
            <g id="our-services" transform="translate(251.000000, 1108.000000)">
                <g id="newspaper" transform="translate(66.000000, 174.000000)">
                    <path d="M74.4606208,0 L20.0421021,0 C19.3847408,0 18.8527237,0.532056842 18.8527237,1.18753753 L18.8527237,5.93157204 L10.0282045,5.93157204 C9.68587519,5.93157204 9.35872649,6.07945827 9.1331067,6.33728623 C8.90748691,6.59594814 8.80540091,6.93772656 8.84954997,7.27728112 L9.311792,10.6854749 L1.18947952,10.6854749 C0.816371238,10.6854749 0.462482417,10.8611593 0.237558984,11.1595726 C0.0129140929,11.4578469 -0.057278731,11.8441023 0.0478712333,12.2046445 L18.1513526,74.1435386 C18.3026014,74.6630863 18.7769601,75 19.2946321,75 C19.4046566,75 74.4600638,75 74.4600638,75 C75.1167288,75 75.6501385,74.470445 75.6501385,73.8119065 L75.6501385,1.18823248 C75.6501385,0.532056842 75.1165895,0 74.4606208,0 Z M18.852863,8.30678609 L18.852863,63.3179609 L11.391533,8.30678609 L18.852863,8.30678609 L18.852863,8.30678609 Z M9.63336984,13.059855 L15.5727412,56.8412669 L2.77536382,13.059855 L9.63336984,13.059855 Z M73.2708246,72.6249249 L21.2314805,72.6249249 L21.2314805,2.37549203 L73.2719388,2.37549203 L73.2719388,72.6249249 L73.2708246,72.6249249 Z M42.046299,11.7538973 L23.1300293,11.7538973 L23.1300293,6.4103954 L42.0456026,6.4103954 L42.046299,11.7538973 L42.046299,11.7538973 Z M71.4907959,11.7538973 L52.5748048,11.7538973 L52.5748048,6.4103954 L71.4900995,6.4103954 L71.4907959,11.7538973 L71.4907959,11.7538973 Z M43.267292,9.08249383 C43.267292,6.88699491 45.0513596,5.10513265 47.2510133,5.10513265 C49.4517812,5.10513265 51.2372415,6.88629995 51.2372415,9.08249383 C51.2372415,11.2792437 49.4509455,13.059855 47.2510133,13.059855 C45.0506633,13.059855 43.267292,11.2786877 43.267292,9.08249383 Z M68.6861469,38.0346977 L52.5748048,38.0346977 L52.5748048,19.9866013 L68.6855898,19.9866013 L68.6861469,38.0346977 L68.6861469,38.0346977 Z M44.8715601,22.639102 L25.063953,22.639102 L25.063953,20.6594558 L44.8715601,20.6594558 L44.8715601,22.639102 Z M25.063953,28.2576667 L44.8715601,28.2576667 L44.8715601,30.2374519 L25.063953,30.2374519 L25.063953,28.2576667 Z M25.2869267,36.0286432 L45.0948123,36.0286432 L45.0948123,38.0081504 L25.2869267,38.0081504 L25.2869267,36.0286432 Z M25.063953,43.8567449 L68.6861469,43.8567449 L68.6861469,45.8355572 L25.063953,45.8355572 L25.063953,43.8567449 Z M25.063953,51.6723375 L68.6861469,51.6723375 L68.6861469,53.6511497 L25.063953,53.6511497 L25.063953,51.6723375 Z M25.063953,59.3891076 L68.6861469,59.3891076 L68.6861469,61.3693097 L25.063953,61.3693097 L25.063953,59.3891076 Z" id="Shape"></path>
                </g>
            </g>
        </g>
    </g>
</svg>