<?xml version="1.0" encoding="UTF-8" standalone="no"?>
<svg width="75px" height="75px" viewBox="0 0 75 75" version="1.1" xmlns="http://www.w3.org/2000/svg" xmlns:xlink="http://www.w3.org/1999/xlink">
    <!-- Generator: Sketch 44.1 (41455) - http://www.bohemiancoding.com/sketch -->
    <title>Shape</title>
    <desc>Created with Sketch.</desc>
    <defs></defs>
    <g id="Page-1" stroke="none" stroke-width="1" fill="none" fill-rule="evenodd">
        <g id="Desktop-HD" transform="translate(-1044.000000, -1283.000000)" fill="#596682">
            <g id="our-services" transform="translate(251.000000, 1108.000000)">
                <g id="1495151038_computer-destop-it-website" transform="translate(793.000000, 175.000000)">
                    <g id="Layer_1_1_">
                        <path d="M65.625,0 L9.375,0 C4.1953125,0 0,4.1953125 0,9.375 L0,51.5625 C0,56.7421875 4.1953125,60.9375 9.375,60.9375 L23.4375,60.9375 L23.4375,70.3125 L14.0625,70.3125 L14.0625,75 L60.9375,75 L60.9375,70.3125 L51.5625,70.3125 L51.5625,60.9375 L65.625,60.9375 C70.8046875,60.9375 75,56.7421875 75,51.5625 L75,9.375 C75,4.1953125 70.8046875,0 65.625,0 L65.625,0 Z M46.875,70.3125 L28.125,70.3125 L28.125,60.9375 L46.875,60.9375 L46.875,70.3125 L46.875,70.3125 Z M70.3125,46.875 L4.6875,46.875 L4.6875,9.375 C4.6875,6.7875 6.7921875,4.6875 9.375,4.6875 L65.625,4.6875 C68.2078125,4.6875 70.3125,6.7875 70.3125,9.375 L70.3125,46.875 L70.3125,46.875 Z" id="Shape"></path>
                    </g>
                </g>
            </g>
        </g>
    </g>
</svg>