<?xml version="1.0" encoding="utf-8"?>
<!-- Generator: Adobe Illustrator 16.0.0, SVG Export Plug-In . SVG Version: 6.00 Build 0)  -->
<!DOCTYPE svg PUBLIC "-//W3C//DTD SVG 1.1//EN" "http://www.w3.org/Graphics/SVG/1.1/DTD/svg11.dtd">
<svg version="1.1" id="Layer_1" xmlns="http://www.w3.org/2000/svg" xmlns:xlink="http://www.w3.org/1999/xlink" x="0px" y="0px"
	 width="1702.872px" height="150.843px" viewBox="3.128 42.579 1702.872 150.843"
	 enable-background="new 3.128 42.579 1702.872 150.843" xml:space="preserve">
<title>Shape</title>
<desc>Created with Sketch.</desc>
<path fill="#354466" d="M3.527,193.422v-47.491c2.496-0.1,5.092,0,7.489,0.799c2.696,0.898,5.292,0.1,7.788-0.2
	c1.797-0.3,3.694-1.099,3.894-3.095c0.1-1.997-0.699-3.894-3.295-4.293c-1.697-0.3-2.396-1.099-2.396-2.596
	c0-3.395-1.099-4.992-4.593-2.196c-0.5,0.399-1.198,0.798-1.897,0.499c-1.098-0.499-0.399-1.298-0.399-1.997
	c0-1.897,1.598-3.895,0.699-5.691c-1.198-2.296-1.198-4.094,1.098-5.691c0.799-0.599,0.999-1.498,0.399-2.396
	c-0.399-0.599-1.298-1.198-1.697-0.798c-3.295,2.196-5.192-0.699-7.489-1.198l0,0V82.829c0.299,0,0.599,0,0.799,0
	c1.797,0.399,7.688,9.585,6.79,11.083c-0.999,1.698-0.1,3.395-0.5,4.793c-0.799,2.496,2.796,6.19-2.196,7.488
	c-2.297,0.599-3.096,2.296-2.596,3.794c0.599,1.997,2.795,1.698,4.593,1.198c2.996-0.799,4.993-5.891,3.395-9.885
	c-0.999-2.396-0.599-3.694,1.997-4.493c1.897-0.599,2.197-1.498,0.699-2.795c-3.095-2.896-4.393-6.39-4.693-10.583
	c-0.2-2.896,1.598-2.396,2.796-2.696c1.797-0.399,4.792-0.798,4.692,1.698c-0.499,7.089,2.297,2.795,4.593,1.398
	c1.298-0.899,4.093-1.797,3.894,0.499c-0.3,3.595,3.594,5.591,2.496,9.585c4.293-2.995,6.39,0.2,8.986,1.498
	c0.599,0.299,0.699,1.098,0.1,1.697c-0.5,0.499-0.999,0.399-1.498,0.1c-3.794-2.296-5.292-0.799-5.691,2.796
	c-0.1,1.099-1.298,1.598-2.097,2.396c-1.698,1.498-1.298,3.395-0.799,5.092c0.599,1.797,2.296,0.599,3.594,0.699
	c1.498,0.2,3.794-0.3,4.194,1.697c0.299,1.697-1.698,1.598-2.996,1.997c-1.098,0.299-2.396,0.998-1.997,2.097
	c0.5,1.298,1.797,0.699,2.796,0.2c0.599-0.299,1.098-0.899,1.997-0.299c-0.1,0.798-0.599,1.797-0.3,2.496
	c2.197,4.792-1.797,4.293-4.493,4.293c-2.995,0.1-3.794-3.195-6.09-4.393c-0.5-0.299,0.299-1.098,0.898-1.498
	c0.999-0.699,2.496-1.498,1.298-2.696c-1.198-1.099-2.796-0.599-4.094,0.499c-2.596,2.396-5.492,4.393-6.291,8.188
	c-0.599,2.596,1.598,10.983,4.094,12.181c0.2,0.1,0.499,0.2,0.799,0.2c2.696,0,2.396,1.098,1.498,2.896
	c-0.699,1.398-1.098,3.295,0.898,4.493c1.398-2.296,5.492,0.1,6.49-3.295c0.599-2.097,2.995-3.395,4.193-1.098
	c2.197,4.093,5.392,3.694,9.086,3.395c3.894-0.399,7.688,0.299,10.584,2.796c1.797,1.498,3.095,2.896,5.691,2.196
	c1.398-0.399,1.897,0.699,2.396,1.697c0.599,1.198-0.1,1.598-1.198,1.997c-0.599,0.2-1.398,0.699-0.999,1.398
	c0.399,0.898,1.398,0.699,2.197,0.499c3.395-0.499,5.991,0.899,8.886,2.496c3.495,1.997,6.79,4.792,11.382,4.493
	c-0.699,2.796-2.596,4.792-4.293,6.99c-1.697,2.096-0.1,3.594,0.899,5.291c0.399,0.699,1.398,1.299,2.197,0.799
	c2.097-1.298,0.399-2.695,0-4.094c-0.2-0.499-0.399-0.998,0.1-1.397c0.499-0.3,1.198-0.3,1.498,0.2
	c1.897,3.594,7.688,4.792,7.189,9.885c-0.1,0.799,0.599,1.497,1.598,1.497s1.398-0.799,1.498-1.598c0.1-0.898,0.299-1.897,0-2.696
	c-1.298-3.494,0-4.892,3.894-4.692c1.198,0,2.596-1.099,3.295,0.499c0.599,1.398-0.799,2.098-1.897,2.597
	c-2.696,1.099-2.896,2.995-2.296,5.192c0.599,2.296,2.396,2.895,4.792,2.795c1.598-0.1,3.395-0.299,4.693,1.099
	c1.597,1.697,3.095,1.497,4.493-0.3c0.798-1.098,1.597-1.797,2.995-0.6c2.396,2.098,8.687,1.897,10.184-0.599
	c1.198-1.997,2.696-2.196,4.493-1.897c6.291,1.099,12.281-1.098,18.571-1.297c9.086-0.3,17.873-3.795,26.459-6.59
	c4.293-1.398,8.487-2.396,12.98-2.297c5.591,0.199,11.282,0.6,16.375-2.097c4.293-2.396,9.086-2.796,13.779-3.096
	c3.894-0.299,7.189-1.697,10.783-2.596c6.79-1.797,12.98-5.292,20.169-6.29c4.593-0.6,9.386-0.3,13.579-1.298
	c7.588-1.897,15.975-0.699,23.064-4.593c0.299-0.2,0.799-0.1,1.198-0.1c6.39-0.499,11.881-3.794,18.271-4.892
	c7.489-1.298,14.478-4.593,22.366-4.394c5.891,0.2,11.283-1.997,17.173-2.396c9.286-0.599,18.571-0.999,27.857-1.398
	c5.192-0.2,10.185,1.398,15.376,0.2c9.286-2.197,18.571-3.595,28.356-2.896c6.49,0.399,13.18-2.197,19.77-2.996
	c5.791-0.699,11.682-1.398,17.374-2.696c8.087-1.897,16.175-4.094,24.462-4.992c9.286-0.999,18.372-2.995,27.258-5.791
	c7.788-2.396,15.476-5.292,23.064-8.287c8.886-3.595,17.572-7.788,26.559-11.183c3.794-1.398,6.69-4.394,10.384-5.292
	c6.69-1.697,15.477-2.396,22.466-3.295c29.954,0.999,84.569,13.379,87.065,11.682c2.396-1.697,5.491,0.5,8.287-0.699
	c7.389-3.195,14.278-7.189,22.565-9.186c6.59-1.597,12.78-4.692,19.77-5.791c2.296-0.299,4.493-1.098,6.689-2.097
	c3.694-1.697,7.788-2.795,12.081-3.195c5.192-0.599,10.584,0.399,15.377-0.699c4.992-1.198,9.885-1.997,15.076-2.596
	c6.391-0.799,12.381,1.198,18.571,1.897c4.793,0.499,9.286,2.197,14.378,1.697c5.691-0.599,11.582,0,17.074,1.298
	c5.591,1.398,10.384-0.898,14.377-2.695c5.492-2.497,11.683-3.595,16.875-6.989c2.496-1.698,6.09-1.997,9.186-3.495
	c2.995-1.397,5.491-3.594,8.687-4.493c7.188-1.897,13.778-5.292,21.267-6.291c4.992-0.699,9.686-2.696,15.177-1.897
	c4.593,0.599,8.887,2.296,13.28,2.996c7.488,1.198,14.178,3.894,20.768,6.889c3.095,1.398,6.29,2.197,10.084,1.498
	c4.493-0.799,9.186-0.299,13.279,2.097c1.897,1.099,3.595,0.799,5.393-0.499c6.39-4.493,12.081-9.785,18.671-13.679
	c13.079-7.788,27.558-10.784,43.033-7.189c2.297,0.499,4.593-1.198,6.49,0.1c3.495,2.296,7.688,2.197,11.482,3.495
	c5.691,1.997,12.081,2.396,16.674,6.69c1.198,1.098,2.796,1.897,4.593,1.697c5.192-0.5,9.486,2.396,14.278,3.395
	c2.097,0.5,4.893-0.399,6.39,1.298c4.793,5.092,12.681,1.397,17.773,5.392c0.199,0.2,0.898,0.1,1.197-0.1
	c7.189-2.396,14.079,0.599,20.969,1.398c7.787,0.898,15.275,2.097,23.164,0.799c7.888-1.398,15.476,0.999,22.065,4.493
	c3.994,2.097,7.589,3.594,11.981,3.594c1.997,0,3.694,0.2,5.092,1.997c1.199,1.498,3.495,3.195,5.393,2.097
	c5.191-3.195,11.183,2.097,16.274-1.598c0.3-0.2,1.598,0.399,2.297,0.799c3.095,1.698,6.091,2.996,9.585,0.399
	c1.298-0.999,3.195-0.399,4.893-0.2c4.293,0.399,8.887,2.197,12.78,0.599c6.689-2.596,13.878-2.596,20.768-4.094
	c5.292-1.198,10.784-0.499,16.175-1.797c3.695-0.898,7.988-3.395,12.082-1.098c3.295,1.897,7.289,1.098,8.986-0.499
	c3.295-3.095,7.688-2.796,11.282-4.493c2.196-0.999,4.692-0.2,6.989-1.098c8.587-3.395,16.974-7.588,26.858-6.39
	c3.195,0.399,6.091-1.598,9.485-1.198c4.992,0.599,9.984,1.198,14.777-1.198c2.297-1.098,4.893-0.799,7.488-0.5
	c4.992,0.6,10.085,1.498,15.077,1.099c7.987-0.499,15.775,1.098,23.663,1.598c5.492,0.399,10.983,3.295,16.275,2.896
	c6.789-0.5,14.277,1.897,20.568-2.496c0.499-0.3,1.598,0,2.396,0.199c1.996,0.5,3.894,0.399,5.791-0.1
	c6.489-1.398,13.279-1.298,19.17-4.992c3.595-2.296,8.287-1.398,12.281-1.099c6.59,0.399,13.08,1.897,19.77,1.398
	c0.1,0,0.299,0.1,0.399,0.1c6.989,4.493,15.575,3.694,23.264,6.19c2.896,0.999,6.49,2.196,8.986,1.298
	c6.89-2.496,13.279,0.599,19.869,0.499c11.183-0.1,22.266,2.297,33.249,4.194c11.383,1.897,22.665,4.593,34.347,3.594
	c2.497-0.199,4.893,1.198,7.489,0.2c8.985-3.495,17.972-6.889,26.958-10.084c6.989-2.496,13.979-3.894,21.667-2.995
	c4.393,0.499,8.586,2.296,13.079,1.997v131.86"/>
</svg>
