<svg xmlns="http://www.w3.org/2000/svg" width="1623" height="34" viewBox="-132.9 9.5 1623.3 33.6"><title>  Shape</title><desc>  Created with Sketch.</desc><path d="M-132.9 43.1l0.1-11.1c2.2 0.6 4.3 1 6.5-0.2 1.5-0.9 3.3-0.7 5-0.6 10.5 0.7 21-0.1 31.5-0.1 15.6 0.1 31.2 0.1 46.8 0 11.2-0.1 22.4-0.7 33.6-0.7 9.9 0 19.9-0.4 29.8 0.6 3.7 0.4 7.5 0.6 11.1-1.2 1-0.5 2.9-0.4 4.1 0.1 5.2 1.9 10.3 1.8 15.5 0.1 0.7-0.3 1.8-0.4 2.4-0.1 4.7 1.9 9.7 1.2 14.6 1.2 28.7 0 57.5 0 86.2 0 15.2 0 30.3 0 45.5 0 2.1 0 4.1-0.1 5.8 1.6 1.3 1.3 3.8 1.4 5 0.2 2.1-2 4.6-1.5 7-1.8 10-1 20.3-1.3 30.1-0.3 11.3 1.1 22.6-0.9 33.8 0.9 4.2 0.7 8.6-1 13-0.6 3.7 0.4 7.4 0.9 10.8-1.2 0.9-0.6 2.6-0.6 3.7-0.3 7.5 2.4 15 1.5 22.5 0.6 11.1-1.4 22.2-0.4 33.3-0.7 4.1-0.1 8.5 1.3 12.1 0.5 11.9-2.5 23.8-0.6 35.6-1.2 6.3-0.3 12.7-0.1 19-0.1 13.4 0.1 26.8-0.5 40.2-0.4 21 0.2 42.1-1 63.1-0.4 7.1 0.2 14.2-1 21.4 0 5.3 0.8 10.3-1.7 15.7-1.9 3-0.1 5.3 1.2 8.1 1.2 8.2-0.1 16.4-0.5 24.5-1.2 0.5 0 1.2 0 1.6 0.2 6.6 2.5 13.4 1.4 20.2 1.1 9.8-0.4 19.9-1.4 29.4-0.2 10.4 1.3 21.2-1.1 31.2 2.8 0.7 0.3 1.7 0.1 2.4-0.2 5.5-2.4 10.7-0.7 16.3 0 5.7 0.8 11.7-0.6 17.5-0.2 10.4 0.7 20.9-1.1 31.3 1 0.7 0.1 1.4 0.5 2 0.5 17.5 0 34.9 0.4 52.4-0.2 7.1-0.2 14.3 0.3 21.4 0.3 6.4 0 12.9-0.2 19 2.1 0.8 0.3 2.1 0.2 2.8-0.2 3-1.7 5.8-0.9 8.9-0.1 3.9 1 8.1 0.1 12-0.8 3.4-0.8 6.5-1.7 9.5 0.7 0.5 0.4 1.3 0.7 2 0.6 7-0.7 13.9 0.7 21 0.5 10.3-0.3 20.7-1.3 31 0.2 1.4 0.2 2.8 0.2 4.2 0.2 15.8 0 31.7-0.4 47.5 0.1 19.7 0.6 39.4-0.1 59.1 0.9 14.1 0.8 28.2 0.8 42.3 2.1l88.8 4.2c4.9-4.3 10.6-3.6 16.3-4.5 7.6-1.1 15.2-1.3 22.8-1.8 7.5-0.5 14.8-1.9 22.3-2 7.8-0.2 15.7-0.5 23.5-0.8 1.2 0 2.2-0.2 3.2-0.8 2.5-1.8 5.1-2.5 8.2-0.9 0.7 0.3 1.7 0.4 2.5 0.1 9.2-2.8 18.9-1.5 28.3-2.8 3.5-0.5 7.3-1 11.1-0.3 4 0.7 7.9-0.4 11.5-1.9 2.3-1 4.5-1.4 6.9-1.2 8.7 0.7 17.5 0.4 25.9-1 12.2-2.1 24.5-2.1 36.7-2.8 7.6-0.5 15.3-1 22.3-2.8 5.7-1.5 12-0.6 17.2-3.8 1.6-1 3.6-0.5 5.4-0.5 5.2 0 10.2-0.3 15.1-2.6 3-1.3 6.8-1.1 10.3-1.3 7.4-0.4 14.8-0.6 22.2-0.8l-0.1 33.6" fill="#F8947D"/></svg>

