<svg xmlns="http://www.w3.org/2000/svg" width="1495" height="45" viewBox="0 -0.7 1495.1 45.1"><title>  Shape</title><desc>  Created with Sketch.</desc><path d="M0 44.1V3.1c4 0 8 0.2 12.1 0 7.4-0.4 14.1-1.8 20.9-3 3.6-0.6 7.4-1.2 11.1-0.6 5.1 0.8 10.2 1.4 15.5 1.8 6.7 0.4 12.3 2.2 18.8 2.9 12 1.3 24 2.7 35.1 5.2 12.8 2.9 25.6 3 39.2 1.6 11.4-1.1 23-1.6 34.5-0.6 9.1 0.8 17.4 2.9 25.7 4.7 10.1 2.2 20.3 4.5 30.6 6.3 10.7 1.9 21.1 4.1 31.6 6.1 3.8 0.7 8 1.8 12.1 1 3.3-0.6 6.5-0.8 9.8-0.6 8.4 0.3 16.6 0.3 24.4-1.3 1.2-0.2 2.4-0.2 3.7-0.1 7.6 0.1 14.8 1.2 22.9 0.4 14.3-1.4 28.9-0.9 43.3 0.7 6.1 0.6 12.6 1.1 18.7 0.8 7.1-0.4 14 0.3 20.9-0.1 1.9-0.1 4-0.6 6.1-0.1 8.1 1.9 17.1 2 25.6 2 10.9 0 21.7 0.4 32.3 0.7 8.6 0.2 16.5-0.8 24.6-1.4 5.5-0.4 10.9-1.3 16.3-1.4 6.3-0.1 12.8-0.4 18.9 0.9 0.8 0.2 2 0.2 2.9 0.1 2.9-0.4 5.8-0.1 8.7 0 3.7 0.1 7 0.9 10.7 0.9 5.3 0 10.9 0.6 15.4 1.5 5.1 1 9 0.5 13.2-0.1 6.7-0.9 13.6-1.4 20.4-2.1 8.4-0.9 17-1.6 25.5-2.4 3.9-0.4 8-0.9 12.1-0.3 8.9 1.2 18.1 1.5 27.2 1.8 6.5 0.2 13.1 0 19.6 0.5 13.2 1 26.6 1 39.8 0.3 11.3-0.6 22.8-0.7 33.9-1.7 12.4-1.1 24.3 0.3 36.2 1.7 9.3 1.1 18.4 2.4 27.7 3.3 4.1 0.4 8.4 0.1 12.6 0.6 7.9 0.9 15.7 0.3 23.1-0.7 6.1-0.8 12.1-1.5 18.5-0.9 2.6 0.3 5.2 0.4 7.9 0.5 11.5 0.4 22.5-0.7 33.7-1.8 8.8-0.8 17.8-1 26.3-2.3 12.1-1.8 24.1-1.8 36.4-0.5 6.4 0.6 12.8 1.3 19.2 2 3.7 0.4 7.2-0.4 10.8 0 4.1 0.5 8.3 0.3 12.6 0 7.3-0.6 14.7-1.3 22.2-0.8 3.1 0.2 6 0.3 9-0.3 2.4-0.5 5.3-0.5 7.8 0.1 3.3 0.7 6.7 0.8 10.2 0.9 6.2 0.1 12.5 0 18.4 0.7 10 1.1 20.2 0.8 30.2 1 8.8 0.2 18-0.6 26.8-1.2 12.4-0.8 23.9-0.1 35.5 1.6 10.7 1.6 21.2 3.4 32.2 4 7.2 0.4 14.3 1.1 21.7 1.1 6.5 0 13.1 0.5 19.6 1.1 4.5 0.4 8.9 1.1 13.2 2 8.7 1.7 17.6 1.1 26.4 0.6 2.2-0.1 3.9 0.1 5.5 0.7 1.1 0.4 2.4 1.1 3.7 0.5 2.8-1.2 6.4-1 9.6-1.5 5.3-0.9 11-0.1 16.3-1 0.7-0.1 1.8 0 2.5 0.1 3.7 0.9 6.8 0.2 9.8-0.7 3.4-1 7.4-1 10.6-0.4 5 1 9.5 1.5 14.3 0.1 0.4-0.1 0.8 0 0.9 0.2 0.2 1.9 3.4 1.1 5 1 5.3-0.3 10.3-1.2 15.6-1.3 4.1 0 7.2-1.8 11.8-1.3 1.8 0.2 3.6 0.9 5.6 0.5 5.8-1 12.2 0.1 18-1 0.8-0.1 1.9-0.1 2.3 0.3 1.1 1.2 1.9 1 4.3 0.4 2.1-0.5 4.1-0.6 4.1-2 0-0.1 0.7-0.3 1-0.3 3.5 0.4 6.3-1.9 10.1-0.6 0.3 0.1 1.1 0 1.6-0.1 3.7-0.8 7.9-0.9 11.1-2.2 0.6-0.3 1.5-0.5 2.3-0.1 0.7 0.3 0.6 0.7 0.2 1.1 -0.7 0.6-2 1.4 0.5 1.7 1.9 0.3 3.4-0.3 3.9-1.1 0.4-0.7 1-1.2 2.8-1.2 0 13.5-0.1-1-0.1 12.5l0 0" fill="#596682"/></svg>
