<?xml version="1.0" encoding="utf-8"?>
<!-- Generator: Adobe Illustrator 16.0.0, SVG Export Plug-In . SVG Version: 6.00 Build 0)  -->
<!DOCTYPE svg PUBLIC "-//W3C//DTD SVG 1.1//EN" "http://www.w3.org/Graphics/SVG/1.1/DTD/svg11.dtd">
<svg version="1.1" id="Layer_1" xmlns="http://www.w3.org/2000/svg" xmlns:xlink="http://www.w3.org/1999/xlink" x="0px" y="0px"
	 width="1702.597px" height="211.249px" viewBox="-171.097 82.725 1702.597 211.249"
	 enable-background="new -171.097 82.725 1702.597 211.249" xml:space="preserve">
<title>Shape</title>
<desc>Created with Sketch.</desc>
<path fill="#354466" d="M1531.5,82.725v32.704c-3.494,2.996-8.487,3.595-11.882,6.69c-0.799,0.798-1.896,1.098-2.995,1.098
	c-2.496,0-4.593,1.099-6.89,1.498c-4.992,0.898-9.585,3.794-14.977,3.095c-2.196-0.199-4.094,0.499-5.99,1.397
	c-3.695,1.897-7.589,2.597-11.782,2.496c-1.798-0.1-3.794-0.498-5.392,0.5c-4.493,2.995-9.686,1.996-14.479,1.996
	c-5.69,0-10.982-1.797-17.073-0.498c-8.687,1.896-18.072,0.698-26.259,5.291c-4.594,2.596-10.484,3.395-14.578,6.391
	c-6.091,4.393-12.48,5.291-19.47,4.393c-1.997-0.199-3.595,0-5.192,0.999c-5.691,3.694-12.58,3.993-18.971,5.491
	c-4.593,1.099-9.086,2.097-13.08,4.493c-1.996,1.099-3.794,2.696-6.39,0.799c-1.099-0.799-2.796-0.399-3.395,0.699
	c-2.396,4.793-6.49,1.598-9.485,1.397c-1.997-0.1-4.294-0.898-6.49-0.799c-6.89,0.201-13.379,2.496-19.869,3.994
	c-4.693,1.1-10.185,2.197-14.178,5.891c-1.697,1.498-4.494,1.898-7.189,1.598c-5.491-0.697-9.885,1.998-13.979,4.693
	c-2.097,1.299-3.794,2.896-6.39,3.295c-9.187,1.498-18.472,2.795-25.86,8.787c-0.699,0.498-1.797,0.699-2.796,0.799
	c-3.894,0.398-7.488,1.797-11.083,3.195c-3.494,1.396-7.289,2.994-11.482,1.996c-1.697-0.4-3.693,0-4.692,1.299
	c-2.796,3.594-8.387,2.994-11.083,6.59c-0.199,0.299-1.098,0.398-1.498,0.299c-6.789-1.299-12.081,1.297-16.674,5.592
	c-0.499,0.498-1.098,0.898-1.797,0.598c-1.997-0.697-3.395,0.5-5.192,0.799c-2.995,0.6-5.292,2.697-8.587,2.797
	c-3.993,0.1-7.888,1.197-11.881,1.896c-1.299,0.199-2.197,0.799-2.496,2.297c-0.6,2.695-2.197,2.396-3.695,0.6
	c-1.797-2.098-3.095-1.697-4.592,0.299c-1.798,2.496-3.994,3.295-7.189,1.598c-2.995-1.598-6.091-1.998-8.486,1.297
	c-0.999,1.398-2.696,2.098-4.394,1.398c-5.892-2.396-11.782-4.293-18.172-1.197c-2.097,0.998-4.593,1.197-6.79,1.797
	c-7.488,1.896-15.176,3.295-22.365,5.891c-5.492,1.896-10.684,4.693-16.574,4.893c-5.092,0.199-10.085,0.1-13.879,3.994
	c-0.3,0.299-1.099,0.6-1.498,0.498c-3.395-0.697-7.089,0-9.984-2.496c-0.898-0.697-1.797-0.998-3.095-0.799
	c-4.893,0.799-9.885,1.498-14.878,2.098c-9.086,0.998-18.271,0.1-27.457,1.498c-2.896,0.398-6.19,0.6-8.786-0.301
	c-3.195-1.098-5.991-0.998-8.986-0.299c-2.097,0.5-3.794,0.5-5.292-1.299c-1.099-1.297-2.695-1.098-4.293-1.197
	c-5.492-0.1-11.283,1.098-16.075-2.695c-0.699-0.5-1.598-0.4-2.396-0.1c-3.694,1.297-7.488,1.098-11.183,0.398
	c-4.294-0.898-8.587,0.898-12.881-0.398c-0.998-0.301-1.397,0.998-1.896,1.697c-1.897,2.994-5.492,3.693-8.287,1.498
	c-0.999-0.799-1.697-1.1-2.896-1c-5.892,0.799-11.782,1.697-17.673,2.297c-3.694,0.4-7.389,0.5-10.983,1.998
	c-1.997,0.797-3.794-0.102-4.992-1.898c-0.799-1.197-1.397-2.994-3.095-2.994c-4.194-0.102-8.587-1.299-12.481-0.102
	c-7.888,2.396-16.175,1.1-24.062,2.496c-4.294,0.699-8.287,2.996-12.78,3.096c-0.3,0-0.6,0.5-0.799,0.898
	c-2.297,3.895-5.691,5.293-10.384,4.193c-0.999-0.199-14.777,4.893-15.376,5.691c-0.999,1.199-2.098,1.797-3.695,2.297
	c-6.189,1.598-12.48,2.996-17.572,6.99c-0.699,0.498-1.897,0.498-2.796,0.598c-3.494,0.301-7.089,0.301-10.384,1
	c-3.395,0.697-6.391,0.598-9.286-1.1c-2.695-1.598-5.191-1.996-8.287-0.398c-1.797,0.998-4.193,0.799-6.19,0
	c-3.295-1.398-6.29-2.197-10.184-2.297c-7.988-0.299-15.077-4.693-23.064-6.09c-3.795-0.6-7.589-1.799-11.482-1.998
	c-3.495-0.199-7.09-1.098-10.284-1.098c-4.693,0-7.987-3.096-13.08-2.496c-6.89,0.699-14.078-1.299-21.167-2.197
	c-1.099-0.1-2.097-0.199-3.295,0c-5.492,1.398-10.983,2.695-16.475,3.994c-1.897,0.5-4.193-0.5-5.791,0.699
	c-3.395,2.596-7.488,3.395-11.582,4.094c-1.697,0.299-3.195,0.898-4.594,1.896c-3.095,2.297-6.689,3.195-10.683,2.896
	c-3.096-0.201-6.19-0.201-8.986,1.396c-4.793,2.797-10.085,2.197-14.978,0.998c-2.296-0.598-3.794,0-4.692,1.299
	c-2.097,2.996-4.593,3.895-8.188,2.896c-0.799-0.201-1.598-0.201-2.396,0.199c-4.692,2.496-9.885,2.994-15.076,2.496
	c-4.793-0.5-8.088,1.396-10.884,4.592c-0.799,1-1.697,1.998-3.095,1.697c-5.491-1.396-93.556-20.367-98.947-22.863
	c-2.396-1.1-5.093-0.898-7.788-0.301c-5.491,1-10.783,2.896-16.075,4.395c-2.696,0.799-4.992,0.398-7.089-1.1
	c-1.398-1.098-2.996-1.896-4.593-1.197c-5.492,2.297-11.583,2.996-17.074,5.191c-2.396,0.998-4.593,1.1-6.789-0.299
	c-1.298-0.799-2.896-1.797-4.193-0.699c-4.294,3.895-10.085,2.695-15.177,4.193c-3.495,0.998-7.189,0.4-10.684,3.096
	c-2.297,1.797-5.791,4.793-10.185,3.195c-7.189-2.496-13.979-0.699-20.369,2.195c-3.294,1.498-6.29,1.898-9.685,1.299
	c-4.094-0.799-8.187-1.598-12.281-2.496c-2.896-0.6-5.791-0.199-8.087,1.297c-3.894,2.498-9.086,1-12.88,3.795
	c-0.799,0.6-2.596,0.199-3.395-0.799c-1.698-1.996-3.295-1.197-5.092-0.199c-5.292,3.195-11.183,3.096-17.074,2.297
	c-4.193-0.5-8.287-0.4-12.581,0c-9.386,1.098-18.871,1.697-28.356,2.695c-7.089,0.699-14.278,1.098-21.167,2.695
	c-9.186,2.297-18.671,2.596-27.757,4.893c-2.896,0.699-5.492,1.498-7.888,3.195c-2.496,1.797-5.292,3.594-8.287,4.293
	c-3.195,0.799-6.49-0.699-9.086-2.596c-2.596-1.896-4.792-4.094-8.586-2.695c-0.3,0.1-1.298-0.301-1.398-0.6
	c-0.898-2.496-2.995-3.494-5.292-4.492c-1.897-0.799-1.597-2.496-0.799-4.094c1.198-2.396,2.197-0.4,3.195,0.199
	c1.398,0.799,2.796,1.098,3.694-0.299c1.398-2.098,3.295-2.098,5.691-0.9c-1.598-3.893-5.792-7.588-9.186-8.586
	c-1.697-0.5-2.996-0.398-3.894,1.197c-1.298,2.197-1.797,1.598-2.696-0.398c-1.198-2.496-2.996-4.793-6.49-5.092
	c-1.398-0.1-3.694,0.799-3.894-1.1c-0.2-1.697,2.296-1.396,3.495-2.195c0.299-0.199,0.798-0.301,1.198-0.4
	c1.298-0.299,2.296-0.898,2.396-2.396c0-1.496-0.898-2.496-2.296-2.895c-1.198-0.4-2.396-0.6-3.095-1.697
	c-0.799-1.098-4.493-1.998-5.691-1.697c-1.198,0.299-2.296,0.498-2.197,1.896c0.2,1.498,0.799,2.695,2.297,3.494
	c0.898,0.4,2.396-0.299,2.896,1.1c-4.693,2.895-4.693,2.895-7.588-1.598c-0.299-0.4-0.699-0.799-1.098-1.1
	c-1.997-1.297-1.498-2.096,0.499-2.895c2.596-0.998,1.997-2.098,0-3.195c-2.396-1.299-5.092-1.996-7.788-2.695
	c-1.598-0.4-3.195-1.299-3.794,0.598c-0.699,2.297,1.697,1.299,2.795,1.498c1.198,0.301,2.097,0.799,2.197,1.998
	c0.1,0.699-0.1,1.498-0.898,1.498c-1.997,0.1-4.493,0.598-6.091-0.102c-4.593-2.295-8.986-4.992-13.279-7.787
	c-2.396-1.498-1.598-2.795,0.898-3.395c0.999-0.301,2.496,0,2.396-1.498c0-0.998-0.799-1.598-1.697-1.996
	c-1.298-0.6-2.396-0.4-3.395,0.598c-1.098,1-0.898,3.096-3.594,3.295c0.699-1.797,0.998-3.594-1.897-3.494l0,0
	c-0.1-2.396-0.1-4.592,3.794-3.494c1.597,0.398,2.396-1.098,3.295-2.098c0.499-0.598,0.699-1.498,0.2-2.195
	c-0.799-0.898-1.498-0.1-2.097,0.299c-1.398,0.998-2.996,2.197-4.094,0c-0.899-1.896,0.599-3.195,2.496-3.795
	c3.395-1.197,5.392-0.1,5.691,3.195c0.5,4.193,1.498,5.393,4.793,5.791c-0.699-1.197-1.398-2.295-1.897-3.494
	c-0.599-1.498-0.399-3.295,1.099-3.693c1.597-0.4,4.293-0.4,4.693,1.396c0.998,3.895,4.992,4.494,7.688,6.391
	c1.198,0.898,1.997,1.299,2.197,2.795c0.499,4.594,4.593,7.09,9.285,5.393c1.897-0.699,5.492-0.4,4.493-4.293
	c-0.399-1.498,1.298-1.498,2.297-0.699c1.797,1.398,3.894,2.596,2.695,5.492c-0.699,1.697-0.499,3.594,1.298,4.992
	c3.894,3.094,9.385,2.596,14.178,0.799c2.896-1.1,4.593-3.895,7.987-4.094c-0.299,1.697-1.697,2.895-2.596,4.293
	c-0.699,1.098-1.099,2.096-0.3,3.195c0.799,0.998,1.897,0.699,2.996,0.598c2.696-0.1,5.292-0.398,7.988,0.6
	c2.496,0.898,4.193-1.297,5.392-2.895c1.298-1.598-1.198-1.898-1.997-2.697c-3.095-3.193-7.389-2.994-11.582-3.193
	c0-2.996,1.098-6.291-4.094-6.891c-1.498-0.199-2.995-1.896-3.395-3.693c-0.2-0.898-0.3-1.898,0.898-2.297
	c0.999-0.299,1.697,0.199,1.997,0.998c0.799,1.998,2.296,1.598,4.094,1.398c4.293-0.301,6.59-2.896,8.786-5.791
	c0.898-1.299,3.395-1.697,2.197-3.994c-1.098-2.197-2.896-3.795-5.591-4.393c-0.799-0.201-1.797-0.102-2.097,0.799
	c-0.3,0.898,0.299,1.697,1.098,1.797c4.992,0.699,2.696,2.596,1.098,4.793c-1.298,1.896-2.696,2.195-4.493,0.998
	c-1.797-1.199-3.395-2.896-1.498-4.893c1.997-2.098,1.598-3.494-0.2-5.293c-0.799-0.799-1.697-1.896-0.699-3.094
	c0.898-1,1.997-0.301,3.095-0.201c4.493,0.4,7.888,4.295,12.88,2.996c0.599-0.1,1.398,0.699,2.197,1.098
	c1.498,0.699,3.095,1.299,4.593,1.898c0.699,0.299,1.398,0.299,1.897-0.301c0.599-0.498,0.799-1.396,0.3-1.697
	c-1.997-1.098-2.496-3.994-5.991-3.494c-2.197,0.299-5.791-0.1-5.292-3.494c0.599-3.994-0.2-4.594-3.694-2.197
	c-0.999,0.699-2.197,0.799-2.795-0.6c-0.599-1.496,0.699-1.697,1.797-2.096c0.799-0.301,1.598-0.4,2.396-0.799
	c3.495-1.697,3.395-3.494,0.898-6.191c-3.195-3.395-6.79-1.297-10.184-1.297c-1.398,0-3.594-0.6-3.794,1.396
	c-0.199,1.498,1.897,1.398,3.195,1.799c1.598,0.498,3.395,1.197,1.997,3.295c-1.198,1.797-6.091,1.896-7.089,0.1
	c-1.298-2.496-4.792-4.293-3.095-7.889c0.5-1.098-0.499-2.396-1.797-2.795c-1.797-0.5-1.198,1.297-1.797,1.996
	c-1.298,1.797-2.296,2.896-3.395-0.299c-0.599-1.797-2.396-2.396-4.493-1.697c-0.898,0.299-1.897,0.6-2.795,0.799
	c-1.198,0.199-2.796,0.6-3.095-1.1c-0.2-1.396,0.699-2.496,2.496-2.596c0.699,0,1.498-0.1,2.097,0.1
	c2.197,0.699,3.794,0.201,5.891-0.799c3.195-1.496,6.889-2.096,9.885,1c1.697,1.697,4.193,1.996,5.192-0.301
	c1.098-2.695,2.197-2.295,4.193-1.197c1.198,0.699,2.496,0,3.295-0.998c0.699-0.898,0.1-2.396-0.499-2.396
	c-3.595,0-6.091-0.898-6.19-4.693c-3.794,0.199-4.792-3.295-7.389-4.594c-0.599-0.299-1.298-0.697-0.799-1.496
	c0.399-0.699,1.099-0.799,1.797-0.6c1.498,0.398,2.995,0.699,4.493-0.199c2.097-1.199,2.296-0.1,2.496,1.498
	c0.299,3.594,3.495,5.689,6.29,6.389c5.192,1.199,10.084,2.496,13.779,6.291c1.697,1.797,3.295,3.096,5.591,0.998
	c3.095-2.895,3.495-6.391,1.298-8.387c-1.598-1.398-3.694-2.996-2.996-5.191c0.799-2.396,3.295-3.295,6.091-3.295
	c1.397,0,2.995,0,2.596-1.998c-0.2-0.998-0.699-2.195,0.999-2.496c1.398-0.199,2.596-0.299,3.595,1.199
	c1.797,2.496,4.593,3.594,7.888,3.094c4.193-0.598,9.585,4.295,8.986,8.287c-0.1,0.5-0.299,1.1-0.699,1.398
	c-3.395,2.396-6.39,5.492-11.183,5.393c-1.198,0-2.996-0.6-3.395,0.799c-0.399,1.598,1.698,1.697,2.796,2.396
	c1.498,0.898,2.896,0.697,4.193-0.4c2.896-2.396,6.49-2.197,9.985-1.797c1.397,0.199,2.696,0.5,4.094,0
	c2.396-0.699,3.994,0.398,4.493,2.396c0.599,2.695,1.198,5.391,1.099,8.088c0,1.598,0.1,2.496,1.697,2.994
	c1.797,0.5,2.396-0.498,2.995-1.896c1.498-2.996,5.292-4.594,7.389-2.695c2.296,2.096,4.593,3.893,7.489,5.291
	c0.998,0.5,1.597,2.197,3.295,1.697c1.597-0.498,0.898-1.996,1.397-2.994c0.699-1.398,0-2.598-0.998-3.496
	c-1.698-1.797-1.797-3.994-2.297-6.09c-0.499-1.697,0.599-2.896,2.297-3.096c1.897-0.199,2.396,1.299,1.997,2.596
	c-0.799,2.996,1.198,3.295,3.495,3.295c2.796,0,4.593,0.898,4.693,3.795c0,1.098,0.599,2.297,0.599,3.395
	c0.1,1.299,0.699,2.297,2.097,2.596c1.398,0.301,2.396-0.498,3.195-1.498c0.998-1.297,1.997-2.496,2.995-3.693
	c0.599-0.699,1.398-1.498,0.599-2.396c-0.699-0.699-1.598-0.299-2.296,0c-1.498,0.699-2.996,1.197-3.994-0.5
	c-1.198-1.996,0.999-2.396,2.097-3.094c2.097-1.299,4.293-2.396,1.398-4.992c-0.499-0.4-0.798-1.199-0.1-1.699
	c0.499-0.299,1.797-0.498,1.897-0.299c2.097,3.195,4.193,1.998,6.59,0.299c0.499-0.299,2.097,0.4,2.995,1
	c2.297,1.498,4.993,1.598,7.688,1.697c0.1-3.295,4.593-3.195,5.491-5.891c0.2-0.5,0.599-0.898,0.2-1.398
	c-0.399-0.5-1.099-0.4-1.498,0c-1.997,2.596-3.694,0.898-5.691,0c-2.396-1.098-4.693-2.795-6.89,0.998
	c-1.797,2.996-7.089,2.396-7.289-0.898c-0.399-5.691-2.996-7.09-8.387-6.291c-1.298,0.201-1.598-2.395-3.495-1.197
	c-2.596,1.697-5.192,1.098-7.888-0.998c0,2.695,2.097,3.994,2.296,5.691c0.399,2.994-2.996,2.096-4.792,3.295
	c0.898-2.797,0-5.193-1.298-7.59c-0.6-1.098-1.498-1.496-2.696-1.297c-1.597,0.299-1.498,1.297-1.098,2.396
	c0.699,2.096,0.5,3.994-1.797,4.992c-4.393,1.797-7.488,4.492-8.187,9.086c-0.1,0.699-0.5,1.598-1.498,1.697
	c-1.298,0-1.397-0.998-1.597-1.896c-0.699-2.297,1.897-8.787,4.094-9.986c2.596-1.396,5.092-2.795,2.896-6.289
	c-0.899-1.398,0.499-3.494,2.097-2.896c4.493,1.799,9.885-3.693,13.679,1.799c0.1,0.1,0.599,0.199,0.799,0.1
	c2.995-1.398,5.691-3.096,9.386-2.896c1.198,0.1,1.997-1.797,0.199-2.895c-1.098-0.699-1.897-1.498-2.196-2.697
	c-0.1-0.598-0.599-1.297,0.2-1.797c0.799-0.498,1.897-0.498,2.296,0.1c2.596,4.295,6.59,3.596,10.684,2.697
	c1.298-0.301,2.496,0.299,3.594,0.998c1.598,1.098,3.195,1.598,5.092,0.998c0.999-0.299,2.097-0.299,2.396,0.799
	c0.299,0.998-0.699,2.098-1.498,2.098c-2.496,0-5.491,1.396-7.189-0.102c-3.694-3.295-4.692,2.396-7.488,1.498
	c0,0.5-0.299,1.1-0.1,1.498c1.398,2.396,3.894,3.994,6.49,3.695c3.295-0.4,6.59,0.1,8.687,1.496c2.996,1.998,5.691,1.299,8.487,1
	c0.999-0.102,1.698-0.6,2.497,0.498c0.499,0.799,0.898,2.297,2.396,1.098c1.098-0.898,0.5-1.896-0.2-2.795
	c-0.599-0.699-0.999-1.598-1.797-2.197c-1.897-1.396-1.897-3.193-1.298-4.893c0.599-1.797,2.596-1.896,4.293-1.697
	c1.997,0.201,4.693,0.201,5.292,2.396c0.799,3.195,2.396,6.49,0.1,9.785c-1.098,1.598-0.299,2.797,1.099,3.596
	c1.697,0.898,2.097-0.301,2.596-1.498c0.499-1.199,1.997-1.199,1.997-0.1c-0.1,3.295,4.094,4.592,3.794,7.986
	c-0.1,1.799,0.898,2.297,2.496,0.699c2.296-2.195,3.794-0.6,4.693,1.299c0.5,1.098,0.2,2.596,0.299,3.793
	c-1.797,0.201-2.196,1.799-3.295,2.697c-0.898,0.697-2.097,1.598-1.298,2.895c0.599,0.898,1.697,0.699,2.696,0.5
	c1.398-0.4,2.496-1.1,2.396-2.697c-0.1-1.098-0.3-2.295-0.5-3.395c0.699,0.201,1.398,0.301,1.997,0.5
	c1.897,0.6,3.495,0.1,4.293-1.598c0.999-2.098-1.198-1.797-2.296-2.297c-1.498-0.799-2.296-1.996-1.897-3.594
	c0.599-2.197-1.198-4.494,0.699-6.689c0.699-0.799-0.499-1.498-1.598-1.797c-5.092-1.598-5.991-5.094-2.496-9.086
	c0.599-0.699,1.697-1.1,2.097-0.301c1.498,3.494,2.696,3.096,4.194,0c0.499-0.998,1.797-0.199,2.696-0.1
	c5.791,0.299,5.891,0.1,5.192-4.992c0-0.1,0.299-0.299,0.599-0.6c1.498,1.998,3.594,2.797,5.691,1.199
	c1.797-1.299,1.198-3.295,0.299-4.992c-0.399-0.699-0.699-1.398-0.999-2.098c-0.299-0.799-0.699-1.398-1.697-1.398
	s-1.398,0.6-1.697,1.498c-0.399,1.598-1.298,3.195-3.395,2.797c-2.596-0.5-3.095,0.498-3.495,2.496
	c-0.599,2.795-3.794,4.492-6.19,3.295c-3.994-1.998-6.989-1.598-9.685,1.996c-1.398,1.896-4.193,1.299-6.29,1.498
	c-1.897,0.199-1.099-1.998-1.498-3.096c-0.299-1.197-1.198-1.598-2.296-1.996c-3.694-1.299-7.389-2.797-10.783,0.598
	c-0.3,0.301-1.099,0.102-1.398-0.697c2.896-3.295,5.891-6.191,11.183-3.295c0.599,0.398,1.698,0.199,2.497,0.199
	c1.397,0,3.195,0.398,3.794-1.098c0.599-1.498-0.1-3.096-1.598-4.094c-0.898-0.699-1.797-1.199-2.296-2.198
	c-0.299-0.699-0.799-1.498-0.1-2.097c0.899-0.699,1.498-0.1,2.097,0.499c1.697,1.897,3.295,1.299,5.192,0.1
	c2.097-1.298,0.999-2.596,0.399-3.993c-0.5-1.099-2.097-2.396-0.5-3.395c1.498-0.999,3.994-0.2,4.293,1.098
	c0.699,2.796,2.896,1.897,4.693,1.897c-0.399,2.396-2.496,1.697-3.794,2.296c-1.098,0.6-2.496,0.699-2.695,2.097
	c-0.2,1.299,0.699,1.798,1.897,2.098c1.198,0.299,1.498,1.297,1.298,2.196c-0.5,2.797,1.498,2.797,3.495,2.797
	c2.995,0,2.396-2.098,2.396-3.596c0-1.397-0.599-2.795-0.699-4.193c-0.1-1.299-0.2-2.996,1.598-3.195
	c2.296-0.3,1.498,1.697,1.697,2.796c0.3,1.198-0.699,2.995,1.099,3.295c1.397,0.299,3.095-0.1,4.193-1.398
	c2.196-2.596,5.092-2.896,8.287-1.997c0,0.5,0,0.999,0,1.498c0.1,1.298,0.699,2.296,2.296,2.197c0.899-0.1,1.598-0.599,1.598-1.498
	c0.1-1.498-0.898-1.997-2.296-2.097c-0.599-0.101-1.099,0-1.697,0c0-1.598,0-3.096,0.799-4.593c1.198-2.098,1.797-4.094,5.092-1.697
	c2.097,1.497,5.092-0.2,7.688-0.4c0.199,0,0.599-0.799,0.599-1.297c0-2.896-4.792-7.789-7.788-8.188
	c-1.598-0.2-2.396,0.499-1.598,1.697c3.095,4.992-2.696,3.994-4.293,4.692c-2.696,1.198-3.095-0.898-2.496-3.095
	c0.299-1.099-0.599-1.598-1.598-1.997c-1.598-0.6-1.697-1.997-2.097-3.195s0-2.396,1.498-2.796c1.298-0.399,2.197,0.1,2.496,1.299
	c0.5,1.597,1.598,1.597,2.896,0.798c0.899-0.599,1.698-0.599,2.696,0c2.097,1.198,2.696-0.399,3.295-1.697
	c0.5-1.099-3.794-7.987-5.092-8.287c-1.598-0.3-2.696,0.499-3.395,1.798c-0.499,0.898-0.599,1.996-1.198,2.895
	c-0.699,0.898-2.896,1.897-2.896,0.699c0.199-4.793-2.297-6.49-6.989-6.59c-0.2,0-0.399-0.699-0.699-0.898
	c-2.396-1.598-4.493-2.496-7.988-1.298c-4.393,1.598-9.186,2.995-13.779,3.694c-5.991,0.898-12.181,1.098-18.271,1.896
	c-2.496,0.3-4.094,0.898-5.292,3.096c-0.999,1.797-2.696,4.493-4.792,3.694c-3.395-1.298-6.59,0.399-9.785-0.999
	c-0.2,2.197,0.599,3.495,2.197,4.693c2.197,1.697,1.897,4.393-0.299,5.491c-0.799,0.399-1.598,0.599-2.396,0.2
	c-0.699-0.4-0.699-0.999-0.5-1.697c0.3-1.099,1.198-2.396-0.499-2.996c-1.498-0.499-2.796,0.399-3.594,1.398
	c-1.198,1.697-2.896,1.197-4.493,1.697c-4.393,1.298-10.084-2.796-13.379,2.795c-0.1,0.2-0.999,0.101-1.498,0.2
	c-6.39,0.698-12.581,1.897-17.773,5.491c-1.897,1.299-3.095,1.498-4.593-0.1c-1.198-1.298-2.896-1.298-4.193-0.499
	c-2.496,1.497-5.292,1.397-7.788,0.799c-4.193-0.999-6.79,1.099-8.986,3.395c-1.498,1.498-2.795,1.697-4.293,0.998
	c-4.293-1.997-8.887-0.898-13.28-1.098c-1.298-0.101-2.795,0.3-2.496,1.896c0.299,1.797,0.2,3.096-2.097,3.395
	c-2.197,0.199-3.794-0.1-4.393-2.497c-0.5-1.896-2.197-2.096-3.994-1.297c-1.298,0.498-2.795,1.397-3.295-0.6
	c-0.699-2.696-2.795-2.296-4.893-2.396c-3.594-0.1-7.388,2.996-10.883-0.399c-0.2-0.199-0.799,0-1.198,0
	c-5.691,0.799-10.185-1.298-14.378-4.692c-3.894-3.195-8.487-5.292-13.979-4.893c-1.397,0.1-3.095,0.898-4.094,0.399
	c-6.889-3.295-14.777-2.496-21.966-4.493c-2.197-0.599-3.495,0.799-4.593,1.897c-0.999,0.998-2.297,2.396-0.3,3.993
	c1.697,1.397,1.697,3.495,0.599,4.993c-0.999,1.397-3.495,1.597-4.992,1.197c-1.797-0.499-2.696-2.496-2.396-4.393
	c0.2-0.999,0.1-1.697-0.999-2.197c-3.295-1.697-7.488-0.199-8.786,3.096l0,0c-3.095,0-6.291-0.1-8.587,2.297
	c-0.499,0.498-1.198,0.799-1.897,0.498c-2.296-0.998-3.595,0.4-5.092,1.598c-2.696,2.297-5.591,3.694-9.485,2.796
	c-2.296-0.599-4.593,0.2-6.091,1.797c-1.198,1.299-2.596,1.598-4.293,2.098c-5.991,1.697-11.981,3.395-17.772,5.691
	c-5.891,2.396-10.983,6.689-17.873,6.789c-0.799,0-1.598,0.498-2.296,0.898c-5.392,3.795-10.883,5.492-17.973,3.693
	c-7.987-2.096-15.975-0.799-23.164,3.695c-2.896,1.797-6.091,3.295-9.585,3.793c-1.997,0.301-3.395,1.1-4.593,2.396
	c-3.495,3.795-8.187,5.193-13.379,5.393c-4.892,0.199-9.385,1.996-14.178,2.596c-4.993,0.5-8.587,3.895-13.679,4.393
	c-3.195,0.4-7.089-0.398-9.585,1.898c-2.996,2.695-6.49,3.893-10.384,4.293l-0.125-124.992"/>
</svg>
